<svg xmlns="http://www.w3.org/2000/svg" xmlns:xlink="http://www.w3.org/1999/xlink" preserveAspectRatio="xMidYMid" width="38" height="32" viewBox="0 0 38 32">
  <defs>
    <style>
      .cls-1 {
        fill: #00897b;
        fill-rule: evenodd;
      }
    </style>
  </defs>
  <path d="M6.217,-0.002 C9.159,-0.002 11.625,2.015 12.276,4.712 L20.028,4.712 C23.612,4.712 26.527,7.577 26.527,11.099 C26.527,14.620 23.612,17.484 20.028,17.484 L19.954,17.484 C18.034,17.484 16.471,19.019 16.471,20.907 C16.471,22.793 18.034,24.328 19.966,24.328 L25.733,24.328 C26.436,21.704 28.865,19.760 31.754,19.760 C35.191,19.760 37.986,22.507 37.986,25.883 C37.986,29.260 35.191,32.007 31.754,32.007 C28.812,32.007 26.345,29.991 25.695,27.292 L19.954,27.292 C16.370,27.292 13.455,24.428 13.455,20.907 C13.455,17.405 16.337,14.553 19.893,14.520 L20.028,14.520 C21.948,14.520 23.510,12.985 23.510,11.099 C23.510,9.212 21.948,7.677 20.028,7.677 L12.238,7.677 C11.535,10.302 9.106,12.246 6.217,12.246 C2.781,12.246 -0.015,9.499 -0.015,6.122 C-0.015,2.746 2.781,-0.002 6.217,-0.002 ZM6.217,9.282 C7.990,9.282 9.433,7.865 9.433,6.122 C9.433,4.380 7.990,2.963 6.217,2.963 C4.444,2.963 3.001,4.380 3.001,6.122 C3.001,7.865 4.444,9.282 6.217,9.282 Z" class="cls-1"/>
</svg>
