<svg xmlns="http://www.w3.org/2000/svg" xmlns:xlink="http://www.w3.org/1999/xlink" preserveAspectRatio="xMidYMid" width="37" height="48.03" viewBox="0 0 37 48.03">
  <defs>
    <style>
      .cls-1 {
        fill: #4db6ac;
        fill-rule: evenodd;
      }
    </style>
  </defs>
  <path d="M37.006,39.734 C37.006,50.790 -0.007,50.790 -0.007,39.734 C-0.007,34.566 1.823,30.956 4.797,27.591 C5.921,28.646 7.147,29.593 8.484,30.373 C9.789,32.737 12.236,34.272 15.036,34.272 C19.231,34.272 22.643,30.780 22.643,26.487 C22.643,25.308 22.375,24.197 21.912,23.197 C21.909,23.198 21.907,23.199 21.905,23.200 C21.605,22.547 21.219,21.943 20.763,21.403 C20.751,21.389 20.738,21.374 20.726,21.360 C19.337,19.736 17.308,18.704 15.036,18.704 C14.329,18.704 13.633,18.807 12.966,19.007 C12.041,18.205 11.289,17.212 10.762,16.092 C11.571,14.799 12.027,13.280 12.027,11.696 L12.027,9.262 C12.027,7.181 11.239,5.298 9.984,3.851 C12.104,1.490 15.120,-0.008 18.498,-0.008 C24.916,-0.008 30.121,5.317 30.118,11.885 C30.118,16.183 27.877,19.911 24.534,21.987 C31.786,24.357 37.006,30.968 37.006,39.734 ZM12.858,24.652 C13.383,23.999 14.147,23.559 15.036,23.559 C16.615,23.559 17.897,24.870 17.897,26.487 C17.897,28.103 16.615,29.415 15.036,29.415 C13.594,29.415 12.452,28.306 12.254,26.886 C7.424,24.719 3.943,20.156 3.094,14.845 C1.752,14.430 0.755,13.205 0.755,11.696 L0.755,9.262 C0.755,7.419 2.219,5.924 4.020,5.924 C5.821,5.924 7.281,7.419 7.281,9.262 L7.281,11.696 C7.281,13.040 6.493,14.184 5.375,14.713 C6.148,19.047 8.950,22.785 12.858,24.652 Z" class="cls-1"/>
</svg>
