<svg xmlns="http://www.w3.org/2000/svg" xmlns:xlink="http://www.w3.org/1999/xlink" preserveAspectRatio="xMidYMid" width="42" height="42" viewBox="0 0 42 42">
  <defs>
    <style>
      .cls-1 {
        fill: #f36c60;
        fill-rule: evenodd;
      }
    </style>
  </defs>
  <path d="M8.447,18.176 C11.807,24.780 17.220,30.170 23.823,33.553 L28.957,28.420 C29.587,27.790 30.520,27.580 31.337,27.860 C33.950,28.723 36.773,29.190 39.667,29.190 C40.950,29.190 42.000,30.240 42.000,31.523 L42.000,39.667 C42.000,40.950 40.950,42.000 39.667,42.000 C17.757,42.000 -0.000,24.243 -0.000,2.333 C-0.000,1.050 1.050,-0.000 2.333,-0.000 L10.500,-0.000 C11.783,-0.000 12.833,1.050 12.833,2.333 C12.833,5.250 13.300,8.050 14.163,10.663 C14.420,11.480 14.233,12.390 13.580,13.043 L8.447,18.176 Z" class="cls-1"/>
</svg>
