<svg xmlns="http://www.w3.org/2000/svg" xmlns:xlink="http://www.w3.org/1999/xlink" preserveAspectRatio="xMidYMid" width="45" height="41.97" viewBox="0 0 45 41.97">
  <defs>
    <style>
      .cls-1 {
        fill: #c6d0d5;
        fill-rule: evenodd;
      }
    </style>
  </defs>
  <path d="M22.500,9.320 L22.500,-0.012 L-0.000,-0.012 L-0.000,41.982 L45.000,41.982 L45.000,9.320 L22.500,9.320 ZM9.000,37.316 L4.500,37.316 L4.500,32.650 L9.000,32.650 L9.000,37.316 ZM9.000,27.984 L4.500,27.984 L4.500,23.318 L9.000,23.318 L9.000,27.984 ZM9.000,18.652 L4.500,18.652 L4.500,13.986 L9.000,13.986 L9.000,18.652 ZM9.000,9.320 L4.500,9.320 L4.500,4.654 L9.000,4.654 L9.000,9.320 ZM18.000,37.316 L13.500,37.316 L13.500,32.650 L18.000,32.650 L18.000,37.316 ZM18.000,27.984 L13.500,27.984 L13.500,23.318 L18.000,23.318 L18.000,27.984 ZM18.000,18.652 L13.500,18.652 L13.500,13.986 L18.000,13.986 L18.000,18.652 ZM18.000,9.320 L13.500,9.320 L13.500,4.654 L18.000,4.654 L18.000,9.320 ZM40.500,37.316 L22.500,37.316 L22.500,32.650 L27.000,32.650 L27.000,27.984 L22.500,27.984 L22.500,23.318 L27.000,23.318 L27.000,18.652 L22.500,18.652 L22.500,13.986 L40.500,13.986 L40.500,37.316 ZM36.000,18.652 L31.500,18.652 L31.500,23.318 L36.000,23.318 L36.000,18.652 ZM36.000,27.984 L31.500,27.984 L31.500,32.650 L36.000,32.650 L36.000,27.984 Z" class="cls-1"/>
</svg>
