<svg xmlns="http://www.w3.org/2000/svg" xmlns:xlink="http://www.w3.org/1999/xlink" preserveAspectRatio="xMidYMid" width="41" height="45" viewBox="0 0 41 45">
  <defs>
    <style>
      .cls-1 {
        fill: #26a69a;
        fill-rule: evenodd;
      }
    </style>
  </defs>
  <path d="M13.667,20.249 L9.111,20.249 L9.111,24.749 L13.667,24.749 L13.667,20.249 ZM22.778,20.249 L18.222,20.249 L18.222,24.749 L22.778,24.749 L22.778,20.249 ZM31.889,20.249 L27.333,20.249 L27.333,24.749 L31.889,24.749 L31.889,20.249 ZM36.444,4.499 L34.166,4.499 L34.166,-0.001 L29.611,-0.001 L29.611,4.499 L11.389,4.499 L11.389,-0.001 L6.833,-0.001 L6.833,4.499 L4.555,4.499 C2.027,4.499 0.023,6.525 0.023,9.000 L-0.000,40.500 C-0.000,42.975 2.027,44.999 4.555,44.999 L36.444,44.999 C38.950,44.999 41.000,42.975 41.000,40.500 L41.000,9.000 C41.000,6.525 38.950,4.499 36.444,4.499 ZM36.444,40.500 L4.555,40.500 L4.555,15.749 L36.444,15.749 L36.444,40.500 Z" class="cls-1"/>
</svg>
