<svg xmlns="http://www.w3.org/2000/svg" xmlns:xlink="http://www.w3.org/1999/xlink" preserveAspectRatio="xMidYMid" width="60" height="60" viewBox="0 0 60 60">
  <defs>
    <style>
      .cls-1 {
        fill: #039be5;
        fill-rule: evenodd;
      }
    </style>
  </defs>
  <path d="M30.000,26.700 C28.170,26.700 26.700,28.170 26.700,30.000 C26.700,31.830 28.170,33.300 30.000,33.300 C31.830,33.300 33.300,31.830 33.300,30.000 C33.300,28.170 31.830,26.700 30.000,26.700 ZM30.000,-0.000 C13.440,-0.000 -0.000,13.440 -0.000,30.000 C-0.000,46.560 13.440,60.000 30.000,60.000 C46.560,60.000 60.000,46.560 60.000,30.000 C60.000,13.440 46.560,-0.000 30.000,-0.000 ZM36.570,36.570 L12.000,48.000 L23.430,23.430 L48.000,12.000 L36.570,36.570 Z" class="cls-1"/>
</svg>
