<svg xmlns="http://www.w3.org/2000/svg" xmlns:xlink="http://www.w3.org/1999/xlink" preserveAspectRatio="xMidYMid" width="42" height="42" viewBox="0 0 42 42">
  <defs>
    <style>
      .cls-1 {
        fill: #fff;
        fill-rule: evenodd;
      }
    </style>
  </defs>
  <path d="M21.000,-0.000 C9.408,-0.000 -0.000,9.408 -0.000,21.000 C-0.000,32.592 9.408,42.000 21.000,42.000 C32.592,42.000 42.000,32.592 42.000,21.000 C42.000,9.408 32.592,-0.000 21.000,-0.000 ZM23.100,35.700 L18.900,35.700 L18.900,31.500 L23.100,31.500 L23.100,35.700 ZM27.447,19.425 L25.557,21.357 C24.045,22.890 23.100,24.150 23.100,27.300 L18.900,27.300 L18.900,26.250 C18.900,23.940 19.845,21.840 21.357,20.307 L23.961,17.661 C24.738,16.905 25.200,15.855 25.200,14.700 C25.200,12.390 23.310,10.500 21.000,10.500 C18.690,10.500 16.800,12.390 16.800,14.700 L12.600,14.700 C12.600,10.059 16.359,6.300 21.000,6.300 C25.641,6.300 29.400,10.059 29.400,14.700 C29.400,16.548 28.644,18.228 27.447,19.425 Z" class="cls-1"/>
</svg>
