<?xml version="1.0" encoding="UTF-8"?>
<!-- Generator: Adobe Illustrator 17.0.1, SVG Export Plug-In . SVG Version: 6.00 Build 0)  -->
<!DOCTYPE svg PUBLIC "-//W3C//DTD SVG 1.1//EN" "http://www.w3.org/Graphics/SVG/1.1/DTD/svg11.dtd">
<svg version="1.1" id="Layer_1" xmlns="http://www.w3.org/2000/svg" xmlns:xlink="http://www.w3.org/1999/xlink" x="0px" y="0px" width="165px" height="104px" viewBox="0 0 165 104" enable-background="new 0 0 165 104" xml:space="preserve">
<path fill="#FFFFFF" d="M113.97,19.677C91.494,78.109,69.645,49.664,69.645,49.664S80.052,55.149,97.918,6.55  c2.276-6.191,8.567-7.652,13-4.027C115.35,6.148,116.33,13.541,113.97,19.677z"/>
<path fill="#FFFFFF" d="M67.77,47.074c0.744-0.258,6.037-0.815,9.831-5.343C66.335,40.938,54.214,29.5,54.214,29.5  S66,47.689,67.77,47.074z"/>
<path fill="#FFFFFF" d="M13.292,90.971h-2.665l-3.817,9.813l-3.799-9.813H0.346l5.239,12.658h2.467L13.292,90.971z"/>
<path fill="#FFFFFF" d="M17.123,103.575V90.971h-2.359v12.604H17.123z"/>
<path fill="#FFFFFF" d="M28.843,100.352c-0.828,0.828-2.071,1.278-3.169,1.278c-3.115,0-4.321-2.179-4.339-4.267  c-0.018-2.107,1.296-4.375,4.339-4.375c1.098,0,2.215,0.378,3.043,1.188l1.584-1.53c-1.296-1.278-2.917-1.927-4.627-1.927  c-4.555,0-6.698,3.349-6.68,6.644c0.018,3.277,1.998,6.5,6.68,6.5c1.819,0,3.493-0.594,4.789-1.873L28.843,100.352z"/>
<path fill="#FFFFFF" d="M34.871,103.575h2.377V93.132h3.997v-2.161c-3.655,0-6.734,0-10.371,0v2.161h3.997V103.575z"/>
<path fill="#FFFFFF" d="M48.606,90.719c-4.357,0-6.482,3.331-6.482,6.644c0,3.313,2.053,6.5,6.482,6.5s6.428-3.259,6.464-6.518  C55.106,94.05,52.945,90.719,48.606,90.719z M48.606,92.88c2.971,0,4.159,2.377,4.123,4.501c-0.036,2.071-1.152,4.303-4.123,4.303  c-2.971,0-4.087-2.215-4.141-4.285C44.41,95.274,45.635,92.88,48.606,92.88z"/>
<path fill="#FFFFFF" d="M67.993,103.413l-3.817-4.303c2.395-0.486,3.187-2.233,3.187-3.961c0-2.179-1.566-4.159-4.537-4.177  c-1.999,0-3.997-0.018-5.996-0.018v12.622h2.377v-4.213h2.287l3.673,4.213h2.827V103.413z M62.825,93.186  c1.494,0,2.161,1.008,2.161,2.017c0,1.008-0.648,2.017-2.161,2.017h-3.619v-4.033H62.825z"/>
<path fill="#FFFFFF" d="M71.068,90.971h-2.827v0.108l4.843,7.292v5.204h2.377v-5.204l5.023-7.292v-0.108h-2.863l-3.349,5.204  L71.068,90.971z"/>
<path fill="#00A99D" d="M84.784,103.575h2.377V93.132h3.997v-2.161c-3.655,0-6.734,0-10.371,0v2.161h3.997V103.575z"/>
<path fill="#00A99D" d="M103.777,103.413l-3.817-4.303c2.395-0.486,3.187-2.233,3.187-3.961c0-2.179-1.566-4.159-4.537-4.177  c-1.999,0-3.997-0.018-5.996-0.018v12.622h2.377v-4.213h2.287l3.673,4.213h2.827V103.413z M98.609,93.186  c1.494,0,2.161,1.008,2.161,2.017c0,1.008-0.648,2.017-2.161,2.017H94.99v-4.033H98.609z"/>
<path fill="#00A99D" d="M114.756,103.575h2.593l-5.654-12.604h-2.593l-5.654,12.604h2.575l1.08-2.377h6.59L114.756,103.575z   M112.739,98.983h-4.681l2.341-5.366L112.739,98.983z"/>
<path fill="#00A99D" d="M127.158,100.352c-0.828,0.828-2.071,1.278-3.169,1.278c-3.115,0-4.321-2.179-4.339-4.267  c-0.018-2.107,1.296-4.375,4.339-4.375c1.098,0,2.215,0.378,3.043,1.188l1.585-1.53c-1.296-1.278-2.917-1.927-4.627-1.927  c-4.555,0-6.698,3.349-6.68,6.644c0.018,3.277,1.999,6.5,6.68,6.5c1.819,0,3.493-0.594,4.789-1.873L127.158,100.352z"/>
<path fill="#00A99D" d="M140.244,90.971h-2.953l-4.79,5.33v-5.33h-2.377v12.604h2.377v-5.582l5.276,5.582h2.935v-0.144l-6.068-6.356  l5.6-6.032V90.971z"/>
<path fill="#00A99D" d="M151.314,101.234h-7.076v-2.845h6.824v-2.215h-6.824v-2.899h7.076v-2.305h-9.435c0,4.195,0,8.409,0,12.604  h9.435V101.234z"/>
<path fill="#00A99D" d="M164.328,103.413l-3.817-4.303c2.395-0.486,3.187-2.233,3.187-3.961c0-2.179-1.566-4.159-4.537-4.177  c-1.999,0-3.997-0.018-5.996-0.018v12.622h2.377v-4.213h2.287l3.673,4.213h2.827V103.413z M159.16,93.186  c1.494,0,2.161,1.008,2.161,2.017c0,1.008-0.648,2.017-2.161,2.017h-3.619v-4.033H159.16z"/>
</svg>