<?xml version="1.0" encoding="iso-8859-1"?>
<!-- Generator: Adobe Illustrator 19.0.0, SVG Export Plug-In . SVG Version: 6.00 Build 0)  -->
<svg xmlns="http://www.w3.org/2000/svg" xmlns:xlink="http://www.w3.org/1999/xlink" version="1.1" id="Capa_1" x="0px" y="0px" viewBox="0 0 489.4 489.4" style="enable-background:new 0 0 489.4 489.4;" xml:space="preserve" width="512px" height="512px">
<g>
	<g>
		<g>
			<path d="M75.3,244.3c0-93.2,76.1-169.4,169.4-169.4c25.2,0,49.3,5.4,71.9,15.9l29.9-63.7C314.6,12,280.5,4.6,244.7,4.6     C112.6,4.6,5,112.2,5,244.3c0,42,10.9,83.1,31.9,119.3L0,395.8l121.6,7.4l7.4-121.6L91.3,315C80.8,293.3,75.3,269.2,75.3,244.3z" fill="#85a2a5"/>
			<path d="M489.4,92.8l-121.6-7.4L360.4,207l37.7-33.4c10.1,22.1,15.5,46.2,15.5,71.1c0,93.2-76.1,169.4-169.4,169.4     c-23.7,0-46.2-4.7-68-14l-28.4,64.5c30.3,13.2,62.5,20.2,95.9,20.2c132.1,0,239.7-107.6,239.7-239.7c0-42-10.9-83.1-31.9-119.3     L489.4,92.8z" fill="#85a2a5"/>
		</g>
	</g>
</g>
<g>
</g>
<g>
</g>
<g>
</g>
<g>
</g>
<g>
</g>
<g>
</g>
<g>
</g>
<g>
</g>
<g>
</g>
<g>
</g>
<g>
</g>
<g>
</g>
<g>
</g>
<g>
</g>
<g>
</g>
</svg>
