<svg xmlns="http://www.w3.org/2000/svg" xmlns:xlink="http://www.w3.org/1999/xlink" preserveAspectRatio="xMidYMid" width="48.062" height="54" viewBox="0 0 48.062 54">
  <defs>
    <style>
      .cls-1 {
        fill: #0c5251;
        fill-rule: evenodd;
      }
    </style>
  </defs>
  <path d="M42.726,5.400 L31.562,5.400 C30.440,2.268 27.502,-0.000 24.030,-0.000 C20.557,-0.000 17.619,2.268 16.498,5.400 L5.333,5.400 C2.395,5.400 -0.009,7.829 -0.009,10.800 L-0.009,48.599 C-0.009,51.570 2.395,53.999 5.333,53.999 L42.726,53.999 C45.664,53.999 48.068,51.570 48.068,48.599 L48.068,10.800 C48.068,7.829 45.664,5.400 42.726,5.400 ZM24.030,5.400 C25.499,5.400 26.701,6.615 26.701,8.100 C26.701,9.585 25.499,10.800 24.030,10.800 C22.561,10.800 21.359,9.585 21.359,8.100 C21.359,6.615 22.561,5.400 24.030,5.400 ZM29.371,43.200 L10.675,43.200 L10.675,37.800 L29.371,37.800 L29.371,43.200 ZM37.384,32.400 L10.675,32.400 L10.675,27.000 L37.384,27.000 L37.384,32.400 ZM37.384,21.599 L10.675,21.599 L10.675,16.200 L37.384,16.200 L37.384,21.599 Z" class="cls-1"/>
</svg>
