<svg xmlns="http://www.w3.org/2000/svg" xmlns:xlink="http://www.w3.org/1999/xlink" preserveAspectRatio="xMidYMid" width="26.969" height="34.969" viewBox="0 0 26.969 34.969">
  <defs>
    <style>
      .cls-1 {
        fill: #f36c60;
        fill-rule: evenodd;
      }
    </style>
  </defs>
  <path d="M25.978,5.362 C25.408,3.903 24.579,3.034 23.698,2.220 C22.818,1.406 21.259,0.612 19.964,0.341 C19.032,0.104 17.659,0.002 15.898,0.002 L2.224,0.002 L2.224,16.204 L-0.010,16.204 L-0.010,19.838 L2.224,19.838 L2.224,21.311 L-0.010,21.311 L-0.010,24.944 L2.224,24.944 L2.224,34.979 L6.145,34.979 L6.145,24.944 L20.187,24.944 L20.187,21.311 L6.145,21.311 L6.145,19.838 L6.390,19.838 L16.209,19.838 C19.990,19.838 22.695,18.788 24.382,16.751 C25.995,14.803 26.981,13.097 26.981,10.111 C26.981,8.381 26.496,6.787 25.978,5.362 ZM20.826,14.542 C19.842,15.661 18.540,16.204 16.261,16.204 L6.390,16.204 L6.390,16.204 L6.145,16.204 L6.145,3.720 L16.183,3.720 C17.789,3.720 18.903,3.822 19.472,4.025 C20.415,4.619 21.156,5.077 21.700,6.095 C22.269,7.146 22.554,8.401 22.554,9.826 C22.554,11.862 21.758,13.456 20.826,14.542 Z" class="cls-1"/>
</svg>
