<svg xmlns="http://www.w3.org/2000/svg" xmlns:xlink="http://www.w3.org/1999/xlink" preserveAspectRatio="xMidYMid" width="52.969" height="52.062" viewBox="0 0 52.969 52.062">
  <defs>
    <style>
      .cls-1 {
        fill: #fff;
        fill-rule: evenodd;
      }
    </style>
  </defs>
  <path d="M37.852,32.749 L35.448,32.749 L34.614,31.934 C37.566,28.550 39.360,24.162 39.360,19.355 C39.360,8.671 30.548,0.010 19.678,0.010 C8.807,0.010 -0.005,8.671 -0.005,19.355 C-0.005,30.040 8.807,38.701 19.678,38.701 C24.567,38.701 29.030,36.939 32.472,34.039 L33.307,34.856 L33.307,37.213 L48.442,52.068 L52.957,47.630 L37.852,32.749 ZM19.678,32.749 C12.152,32.749 6.051,26.753 6.051,19.355 C6.051,11.958 12.152,5.962 19.678,5.962 C27.204,5.962 33.304,11.958 33.304,19.355 C33.304,26.753 27.204,32.749 19.678,32.749 Z" class="cls-1"/>
</svg>
